<svg width="37" height="37" viewBox="0 0 37 37" fill="none" xmlns="http://www.w3.org/2000/svg">
<path d="M13.6364 7.23869C15.8008 3.35735 16.8822 1.41669 18.5 1.41669C20.1178 1.41669 21.1992 3.35735 23.3636 7.23869L23.924 8.24319C24.539 9.34677 24.8465 9.89856 25.3248 10.2624C25.8031 10.6263 26.401 10.7613 27.5969 11.0312L28.6834 11.2772C32.8859 12.2287 34.9854 12.7036 35.486 14.3112C35.9848 15.917 34.5532 17.5929 31.6883 20.9429L30.9469 21.8091C30.1337 22.7606 29.7255 23.2372 29.5427 23.8249C29.3599 24.4143 29.4214 25.0498 29.5444 26.3191L29.6571 27.4756C30.0893 31.9463 30.3063 34.1808 28.9977 35.1734C27.6891 36.1676 25.7211 35.2605 21.7885 33.4496L20.7687 32.9816C19.6514 32.4656 19.0928 32.2094 18.5 32.2094C17.9072 32.2094 17.3486 32.4656 16.2313 32.9816L15.2132 33.4496C11.2789 35.2605 9.31087 36.1659 8.00399 35.1751C6.6937 34.1808 6.91066 31.9463 7.34287 27.4756L7.45562 26.3208C7.57862 25.0498 7.64012 24.4143 7.45562 23.8266C7.27454 23.2372 6.86625 22.7606 6.05308 21.8108L5.31166 20.9429C2.44679 17.5946 1.0152 15.9187 1.51404 14.3112C2.01458 12.7036 4.11583 12.227 8.31833 11.2772L9.40483 11.0312C10.599 10.7613 11.1952 10.6263 11.6752 10.2624C12.1535 9.89856 12.461 9.34677 13.076 8.24319L13.6364 7.23869Z" stroke="#42BFDD" stroke-width="1.5"/>
</svg>
